<svg width="718" height="718" viewBox="0 0 718 718" fill="none" xmlns="http://www.w3.org/2000/svg">
<g clip-path="url(#clip0_10_4)">
<path d="M445.511 130.888C413.869 139.367 395.413 175.965 407.442 206.091C418.906 234.108 426.158 240.078 455.739 242.891C481.873 245.498 512.054 221.018 516.102 193.933C521.824 156.224 482.427 120.997 445.511 130.888Z" fill="#FBDB65"/>
<path d="M170.52 159.355L147.357 199.476L220.912 241.943C261.701 265.493 293.695 285.747 292.537 287.753C291.378 289.759 234.263 319.194 165.828 352.793L41.4363 413.82L62.3095 457.968C74.3661 481.869 87.1191 499.931 91.3381 498.8C94.8884 497.284 155.451 468.056 226.381 433.223C296.257 398.673 354.116 374.126 355.915 378.731C356.66 383.619 361.243 451.35 366.26 529.139C372.531 626.375 379.23 670.364 386.51 670.109C435.745 668.222 467.463 664.245 470.166 659.564C471.71 656.889 469.03 592.04 463.91 515.974L454.951 377.065L528.506 419.532L602.061 461.999L625.225 421.878L648.389 381.757L421.037 250.496L193.684 119.234L170.52 159.355Z" fill="#FBDB65"/>
</g>
<defs>
<clipPath id="clip0_10_4">
<rect width="525.048" height="525.048" fill="white" transform="translate(262.524) rotate(30)"/>
</clipPath>
</defs>
</svg>
