<svg width="900" height="900" viewBox="0 0 900 900" fill="none" xmlns="http://www.w3.org/2000/svg">
<rect width="900" height="900" fill="#8031A7"/>
<g clip-path="url(#clip0_10_3)">
<path d="M536.511 221.888C504.869 230.367 486.413 266.965 498.442 297.091C509.906 325.108 517.158 331.078 546.739 333.891C572.873 336.498 603.054 312.018 607.102 284.933C612.824 247.224 573.427 211.997 536.511 221.888Z" fill="#FBDB65"/>
<path d="M261.52 250.355L238.357 290.476L311.912 332.943C352.701 356.493 384.695 376.747 383.537 378.753C382.378 380.759 325.263 410.194 256.828 443.793L132.436 504.82L153.31 548.968C165.366 572.869 178.119 590.931 182.338 589.8C185.888 588.284 246.451 559.056 317.381 524.223C387.257 489.673 445.116 465.126 446.915 469.731C447.66 474.619 452.243 542.35 457.26 620.139C463.531 717.375 470.23 761.364 477.51 761.109C526.745 759.222 558.463 755.245 561.166 750.564C562.71 747.889 560.03 683.04 554.91 606.974L545.951 468.065L619.506 510.532L693.061 552.999L716.225 512.878L739.389 472.757L512.037 341.496L284.684 210.234L261.52 250.355Z" fill="#FBDB65"/>
</g>
<defs>
<clipPath id="clip0_10_3">
<rect width="525.048" height="525.048" fill="white" transform="translate(353.524 91) rotate(30)"/>
</clipPath>
</defs>
</svg>
