<svg width="229" height="47" viewBox="0 0 229 47" fill="none" xmlns="http://www.w3.org/2000/svg">
<rect x="1" y="1" width="227" height="45" rx="22.5" stroke="#242323" stroke-width="2"/>
<circle cx="27.5" cy="23.5" r="10.5" fill="#242323"/>
<path d="M34 24H22" stroke="#FAE073" stroke-width="2" stroke-linecap="round"/>
<path d="M28 30L28 18" stroke="#FAE073" stroke-width="2" stroke-linecap="round"/>
<path d="M63.2 30.416H65V32V35.456H63.32V32H61.52H52.04V35.456H50.36V31.136V30.416H51.728C52.832 29.12 53.384 27.12 53.384 24.416V15.2H63.2V30.416ZM53.72 30.416H61.52V16.784H55.064V24.464C55.064 27.12 54.616 29.104 53.72 30.416ZM77.111 30.488C75.895 31.688 74.407 32.288 72.647 32.288C70.887 32.288 69.391 31.688 68.159 30.488C66.943 29.272 66.335 27.776 66.335 26C66.335 24.224 66.943 22.736 68.159 21.536C69.391 20.32 70.887 19.712 72.647 19.712C74.407 19.712 75.895 20.32 77.111 21.536C78.343 22.736 78.959 24.224 78.959 26C78.959 27.776 78.343 29.272 77.111 30.488ZM69.287 29.384C70.199 30.296 71.319 30.752 72.647 30.752C73.975 30.752 75.095 30.296 76.007 29.384C76.919 28.456 77.375 27.328 77.375 26C77.375 24.672 76.919 23.552 76.007 22.64C75.095 21.712 73.975 21.248 72.647 21.248C71.319 21.248 70.199 21.712 69.287 22.64C68.375 23.552 67.919 24.672 67.919 26C67.919 27.328 68.375 28.456 69.287 29.384ZM86.9377 32.288C85.2097 32.288 83.7697 31.712 82.6177 30.56C81.4657 29.392 80.8897 27.872 80.8897 26C80.8897 24.816 81.0977 23.744 81.5137 22.784C81.9457 21.808 82.4817 21.024 83.1217 20.432C83.7617 19.84 84.4497 19.288 85.1857 18.776C85.9377 18.248 86.6337 17.824 87.2737 17.504C87.9137 17.168 88.4417 16.8 88.8577 16.4C89.2897 16 89.5057 15.6 89.5057 15.2H91.1377C91.1377 15.888 90.9217 16.496 90.4897 17.024C90.0737 17.552 89.5297 18.008 88.8577 18.392C88.1857 18.776 87.4897 19.16 86.7697 19.544C86.0497 19.928 85.3297 20.424 84.6097 21.032C83.9057 21.624 83.3617 22.296 82.9777 23.048C84.0657 21.736 85.4177 21.08 87.0337 21.08C88.6497 21.08 90.0177 21.608 91.1377 22.664C92.2577 23.72 92.8177 25.056 92.8177 26.672C92.8177 28.288 92.2577 29.632 91.1377 30.704C90.0337 31.76 88.6337 32.288 86.9377 32.288ZM83.7937 29.528C84.6417 30.312 85.6897 30.704 86.9377 30.704C88.1857 30.704 89.2097 30.328 90.0097 29.576C90.8257 28.808 91.2337 27.84 91.2337 26.672C91.2337 25.504 90.8177 24.536 89.9857 23.768C89.1537 23 88.0977 22.616 86.8177 22.616C85.6977 22.616 84.6977 22.976 83.8177 23.696C82.9537 24.4 82.5217 25.344 82.5217 26.528C82.5217 27.744 82.9457 28.744 83.7937 29.528ZM99.3125 19.712C100.673 19.712 101.769 20.12 102.601 20.936C103.449 21.736 103.873 22.824 103.873 24.2V32H102.289V30.656C101.521 31.744 100.281 32.288 98.5685 32.288C97.3845 32.288 96.3685 31.952 95.5205 31.28C94.6885 30.608 94.2725 29.656 94.2725 28.424C94.2725 27.192 94.6885 26.24 95.5205 25.568C96.3685 24.896 97.3845 24.56 98.5685 24.56C100.233 24.56 101.473 25.08 102.289 26.12V24.2C102.289 23.192 102.001 22.448 101.425 21.968C100.865 21.488 100.161 21.248 99.3125 21.248C98.4805 21.248 97.7765 21.464 97.2005 21.896C96.6245 22.312 96.3365 22.92 96.3365 23.72H94.7525C94.7525 22.568 95.1765 21.616 96.0245 20.864C96.8725 20.096 97.9685 19.712 99.3125 19.712ZM98.9525 30.8C99.9125 30.8 100.705 30.576 101.329 30.128C101.969 29.68 102.289 29.112 102.289 28.424C102.289 27.704 101.977 27.128 101.353 26.696C100.729 26.264 99.9285 26.048 98.9525 26.048C97.9285 26.048 97.1525 26.264 96.6245 26.696C96.1125 27.128 95.8565 27.704 95.8565 28.424C95.8565 29.144 96.1125 29.72 96.6245 30.152C97.1525 30.584 97.9285 30.8 98.9525 30.8ZM115.226 24.752C116.586 25.408 117.266 26.52 117.266 28.088C117.266 29.208 116.89 30.144 116.138 30.896C115.402 31.632 114.338 32 112.946 32H106.946V25.712V21.488V20H111.746C112.914 20 113.842 20.32 114.53 20.96C115.234 21.584 115.586 22.376 115.586 23.336C115.586 23.848 115.466 24.32 115.226 24.752ZM108.53 21.488V24.272H112.946C113.122 24.272 113.37 24.288 113.69 24.32C113.898 24 114.002 23.672 114.002 23.336C114.002 22.712 113.786 22.24 113.354 21.92C112.922 21.6 112.386 21.456 111.746 21.488H108.53ZM112.946 30.512C113.81 30.512 114.482 30.296 114.962 29.864C115.442 29.432 115.682 28.84 115.682 28.088C115.682 27.336 115.442 26.752 114.962 26.336C114.482 25.92 113.81 25.712 112.946 25.712H108.53V30.512H112.946ZM127.571 20H128.915V32H127.331V22.88L120.899 32H119.555V20H121.139V29.12L127.571 20ZM139.962 20V21.536H136.194V32H134.61V21.536H130.842V20H136.194H139.962ZM146.763 24.56C147.883 24.56 148.827 24.912 149.595 25.616C150.379 26.304 150.771 27.192 150.771 28.28C150.771 29.368 150.379 30.264 149.595 30.968C148.827 31.656 147.883 32 146.763 32H142.707H141.891V20H143.475V24.56H146.763ZM146.763 30.464C147.435 30.464 148.003 30.264 148.467 29.864C148.947 29.464 149.187 28.936 149.187 28.28C149.187 27.624 148.947 27.096 148.467 26.696C148.003 26.296 147.435 26.096 146.763 26.096H143.475V30.464H146.763ZM170.876 21.728C172.028 22.896 172.604 24.32 172.604 26C172.604 27.68 172.028 29.104 170.876 30.272C169.724 31.44 168.204 32.104 166.316 32.264V36.8H164.732V32.264C162.844 32.104 161.324 31.44 160.172 30.272C159.02 29.104 158.444 27.68 158.444 26C158.444 24.32 159.02 22.896 160.172 21.728C161.324 20.56 162.844 19.896 164.732 19.736V15.2H166.316V19.736C168.204 19.896 169.724 20.56 170.876 21.728ZM161.3 22.832C160.452 23.696 160.028 24.752 160.028 26C160.028 27.248 160.452 28.312 161.3 29.192C162.148 30.056 163.292 30.56 164.732 30.704V21.296C163.292 21.44 162.148 21.952 161.3 22.832ZM166.316 30.704C167.756 30.56 168.9 30.056 169.748 29.192C170.596 28.312 171.02 27.248 171.02 26C171.02 24.752 170.596 23.696 169.748 22.832C168.9 21.952 167.756 21.44 166.316 21.296V30.704ZM185.299 30.488C184.083 31.688 182.595 32.288 180.835 32.288C179.075 32.288 177.579 31.688 176.347 30.488C175.131 29.272 174.523 27.776 174.523 26C174.523 24.224 175.131 22.736 176.347 21.536C177.579 20.32 179.075 19.712 180.835 19.712C182.595 19.712 184.083 20.32 185.299 21.536C186.531 22.736 187.147 24.224 187.147 26C187.147 27.776 186.531 29.272 185.299 30.488ZM177.475 29.384C178.387 30.296 179.507 30.752 180.835 30.752C182.163 30.752 183.283 30.296 184.195 29.384C185.107 28.456 185.562 27.328 185.562 26C185.562 24.672 185.107 23.552 184.195 22.64C183.283 21.712 182.163 21.248 180.835 21.248C179.507 21.248 178.387 21.712 177.475 22.64C176.563 23.552 176.107 24.672 176.107 26C176.107 27.328 176.563 28.456 177.475 29.384ZM197.008 20V21.536H193.24V32H191.656V21.536H187.888V20H193.24H197.008ZM208.525 30.488C207.309 31.688 205.821 32.288 204.061 32.288C202.301 32.288 200.805 31.688 199.573 30.488C198.357 29.272 197.749 27.776 197.749 26C197.749 24.224 198.357 22.736 199.573 21.536C200.805 20.32 202.301 19.712 204.061 19.712C205.821 19.712 207.309 20.32 208.525 21.536C209.757 22.736 210.373 24.224 210.373 26C210.373 27.776 209.757 29.272 208.525 30.488ZM200.701 29.384C201.613 30.296 202.733 30.752 204.061 30.752C205.389 30.752 206.509 30.296 207.421 29.384C208.333 28.456 208.789 27.328 208.789 26C208.789 24.672 208.333 23.552 207.421 22.64C206.509 21.712 205.389 21.248 204.061 21.248C202.733 21.248 201.613 21.712 200.701 22.64C199.789 23.552 199.333 24.672 199.333 26C199.333 27.328 199.789 28.456 200.701 29.384Z" fill="#242323"/>
</svg>
