<svg width="54" height="61" viewBox="0 0 54 61" fill="none" xmlns="http://www.w3.org/2000/svg">
<mask id="path-1-inside-1_857_770" fill="white">
<path d="M0 3C0 1.34315 1.34315 0 3 0H51C52.6569 0 54 1.34315 54 3V58C54 59.6569 52.6569 61 51 61H3C1.34315 61 0 59.6569 0 58V3Z"/>
</mask>
<path d="M-3 3C-3 -0.313708 -0.313708 -3 3 -3H51C54.3137 -3 57 -0.313708 57 3H51H3H-3ZM57 65C57 68.3137 54.3137 71 51 71H3C-0.313708 71 -3 68.3137 -3 65L3 51H51L57 65ZM3 71C-0.313708 71 -3 68.3137 -3 65V3C-3 -0.313708 -0.313708 -3 3 -3V3V51V71ZM51 -3C54.3137 -3 57 -0.313708 57 3V65C57 68.3137 54.3137 71 51 71V51V3V-3Z" fill="#FAE073" mask="url(#path-1-inside-1_857_770)"/>
<circle cx="38.5" cy="14.5" r="5.5" stroke="#FAE073" stroke-width="2"/>
<path d="M5 36.9069C5 36.5023 5.12271 36.1072 5.35192 35.7738L15.8659 20.4808C16.676 19.3025 18.425 19.3303 19.1972 20.5337L32.2381 40.8571L41.6289 25.956C42.5077 24.5616 44.6012 24.769 45.1893 26.3087L48.8684 35.9411C48.9554 36.1689 49 36.4108 49 36.6547V50H5V36.9069Z" fill="#FAE073"/>
</svg>
