<svg width="46" height="46" viewBox="0 0 46 46" fill="none" xmlns="http://www.w3.org/2000/svg">
<g id="&#209;&#129;&#209;&#130;&#209;&#128;&#208;&#181;&#208;&#187;&#208;&#190;&#209;&#135;&#208;&#186;&#208;&#176;">
<circle id="Ellipse 8" cx="23" cy="23" r="22" fill="#242323" stroke="#FAE073" stroke-width="2"/>
<path id="Arrow 2" d="M30 24C30.5523 24 31 23.5523 31 23C31 22.4477 30.5523 22 30 22V24ZM15.2929 22.2929C14.9024 22.6834 14.9024 23.3166 15.2929 23.7071L21.6569 30.0711C22.0474 30.4616 22.6805 30.4616 23.0711 30.0711C23.4616 29.6805 23.4616 29.0474 23.0711 28.6569L17.4142 23L23.0711 17.3431C23.4616 16.9526 23.4616 16.3195 23.0711 15.9289C22.6805 15.5384 22.0474 15.5384 21.6569 15.9289L15.2929 22.2929ZM30 22H16V24H30V22Z" fill="#FAE073"/>
</g>
</svg>
