<svg width="36.953003" height="40.661316" viewBox="0 0 36.953 40.6613" fill="none" xmlns="http://www.w3.org/2000/svg" xmlns:xlink="http://www.w3.org/1999/xlink">
	<desc>
			Created with Pixso.
	</desc>
	<defs/>
	<path id="Vector 2" d="" fill="#242323" fill-opacity="0" fill-rule="nonzero"/>
	<path id="Vector 2" d="M19.7873 1.89645C19.1227 1.4505 18.2562 1.44376 17.5847 1.87927L2.30078 11.792C1.09436 12.5744 1.3006 14.3987 2.65125 14.892C3.33899 15.1432 3.79645 15.7973 3.79645 16.5294L3.79645 21.7784L3.79645 37.1613C3.79645 38.2659 4.69189 39.1613 5.79645 39.1613L12.899 39.1613L24.4843 39.1613L31.311 39.1613C32.4156 39.1613 33.311 38.2659 33.311 37.1613L33.311 21.7784L33.311 16.4604C33.311 15.7659 33.7343 15.1416 34.3795 14.8845C35.6471 14.3794 35.8298 12.6603 34.6967 11.9L19.7873 1.89645ZM24.4843 39.1613L24.4843 27.9839C24.4843 26.8793 23.5888 25.9839 22.4843 25.9839L14.899 25.9839C13.7945 25.9839 12.899 26.8793 12.899 27.9839L12.899 39.1613" stroke="#FAE073" stroke-opacity="1.000000" stroke-width="3.000000"/>
</svg>
