<svg width="44.953003" height="48.661377" viewBox="0 0 44.953 48.6614" fill="none" xmlns="http://www.w3.org/2000/svg" xmlns:xlink="http://www.w3.org/1999/xlink">
	<desc>
			Created with Pixso.
	</desc>
	<defs>
		<filter id="filter_62_291_dd" x="0.000000" y="0.000000" width="44.953003" height="48.661377" filterUnits="userSpaceOnUse" color-interpolation-filters="sRGB">
			<feFlood flood-opacity="0" result="BackgroundImageFix"/>
			<feColorMatrix in="SourceAlpha" type="matrix" values="0 0 0 0 0 0 0 0 0 0 0 0 0 0 0 0 0 0 127 0" result="hardAlpha"/>
			<feOffset dx="4" dy="4"/>
			<feGaussianBlur stdDeviation="1.33333"/>
			<feComposite in2="hardAlpha" operator="out" k2="-1" k3="1"/>
			<feColorMatrix type="matrix" values="0 0 0 0 0 0 0 0 0 0 0 0 0 0 0 0 0 0 0.35 0"/>
			<feBlend mode="normal" in2="BackgroundImageFix" result="effect_dropShadow_1"/>
			<feBlend mode="normal" in="SourceGraphic" in2="effect_dropShadow_1" result="shape"/>
		</filter>
	</defs>
	<g filter="url(#filter_62_291_dd)">
		<path id="Vector 2" d="M2.30078 11.792C1.09436 12.5745 1.3006 14.3987 2.65125 14.8921C3.33899 15.1433 3.79645 15.7974 3.79645 16.5295L3.79645 37.1614C3.79645 38.2659 4.69189 39.1614 5.79645 39.1614L31.311 39.1614C32.4156 39.1614 33.311 38.2659 33.311 37.1614L33.311 16.4604C33.311 15.7659 33.7343 15.1416 34.3795 14.8845C35.6471 14.3794 35.8298 12.6604 34.6967 11.9001L19.7873 1.89648C19.1227 1.45068 18.2562 1.44385 17.5847 1.87939L2.30078 11.792Z" fill="#242323" fill-opacity="1.000000" fill-rule="evenodd"/>
	</g>
	<path id="Vector 2" d="M19.7873 1.89648C19.1227 1.45068 18.2562 1.44385 17.5847 1.87939L2.30078 11.792C1.09436 12.5745 1.3006 14.3987 2.65125 14.8921C3.33899 15.1433 3.79645 15.7974 3.79645 16.5295L3.79645 21.7783L3.79645 37.1614C3.79645 38.2659 4.69189 39.1614 5.79645 39.1614L12.899 39.1614L24.4843 39.1614L31.311 39.1614C32.4156 39.1614 33.311 38.2659 33.311 37.1614L33.311 21.7783L33.311 16.4604C33.311 15.7659 33.7343 15.1416 34.3795 14.8845C35.6471 14.3794 35.8298 12.6604 34.6967 11.9001L19.7873 1.89648ZM24.4843 39.1614L24.4843 27.9839C24.4843 26.8794 23.5888 25.9839 22.4843 25.9839L14.899 25.9839C13.7945 25.9839 12.899 26.8794 12.899 27.9839L12.899 39.1614" stroke="#FAE073" stroke-opacity="1.000000" stroke-width="3.000000"/>
</svg>
