<svg width="303" height="303" viewBox="0 0 303 303" fill="none" xmlns="http://www.w3.org/2000/svg">
<path d="M151.5 303C67.8289 303 2.80439e-06 235.171 1.80662e-06 151.5C8.08851e-07 67.8289 67.8289 2.80439e-06 151.5 1.80662e-06C235.171 8.08851e-07 303 67.8289 303 151.5C303 235.171 235.171 303 151.5 303ZM151.5 24.4626C81.3392 24.4626 24.4626 81.3392 24.4626 151.5C24.4626 221.661 81.3392 278.537 151.5 278.537C221.661 278.537 278.537 221.661 278.537 151.5C278.537 81.3392 221.661 24.4626 151.5 24.4626Z" fill="url(#paint0_linear_430_16)"/>
<path d="M68.152 150.032C70.644 151.852 71.89 154.4 71.89 157.676C71.89 160.644 70.84 163.052 68.74 164.9C66.668 166.72 63.938 167.63 60.55 167.63C57.19 167.63 54.46 166.65 52.36 164.69C50.26 162.73 49.21 160.252 49.21 157.256H56.728C56.728 158.236 57.05 159.034 57.694 159.65C58.366 160.238 59.318 160.532 60.55 160.532C61.81 160.532 62.762 160.266 63.406 159.734C64.05 159.174 64.372 158.418 64.372 157.466C64.372 156.514 64.05 155.772 63.406 155.24C62.762 154.708 61.81 154.442 60.55 154.442H57.862V147.764H60.55H61.348C62.104 147.372 62.482 146.728 62.482 145.832C62.482 144.516 61.698 143.858 60.13 143.858C58.562 143.858 57.778 144.516 57.778 145.832H50.302C50.302 143.172 51.226 141.03 53.074 139.406C54.95 137.782 57.302 136.97 60.13 136.97C62.93 136.97 65.268 137.754 67.144 139.322C69.02 140.89 69.958 142.85 69.958 145.202C69.958 147.022 69.356 148.632 68.152 150.032ZM83.3009 145.412C85.7929 145.412 87.9069 146.14 89.6429 147.596C91.3789 149.024 92.2469 151.082 92.2469 153.77V167H85.5269V165.572C84.2389 166.916 82.5309 167.588 80.4029 167.588C78.3589 167.588 76.6649 167.028 75.3209 165.908C74.0049 164.76 73.3469 163.136 73.3469 161.036C73.3469 158.936 74.0189 157.326 75.3629 156.206C76.7069 155.058 78.4149 154.484 80.4869 154.484C82.5029 154.484 84.1829 154.96 85.5269 155.912V153.98C85.5269 152.412 84.7849 151.628 83.3009 151.628C82.5729 151.628 82.0129 151.796 81.6209 152.132C81.2569 152.468 81.0749 152.902 81.0749 153.434H74.3549C74.3549 150.914 75.2229 148.954 76.9589 147.554C78.7229 146.126 80.8369 145.412 83.3009 145.412ZM82.8389 162.968C83.6509 162.968 84.2949 162.786 84.7709 162.422C85.2749 162.058 85.5269 161.596 85.5269 161.036C85.5269 160.42 85.2749 159.944 84.7709 159.608C84.2949 159.272 83.6509 159.104 82.8389 159.104C82.0549 159.104 81.4389 159.286 80.9909 159.65C80.5709 159.986 80.3609 160.448 80.3609 161.036C80.3609 161.624 80.5709 162.1 80.9909 162.464C81.4389 162.8 82.0549 162.968 82.8389 162.968ZM110.084 146V152.678H102.818V167H95.8461V146H110.084ZM124.856 145.412C127.656 145.412 130.022 146.476 131.954 148.604C133.914 150.732 134.894 153.364 134.894 156.5C134.894 159.636 133.914 162.268 131.954 164.396C130.022 166.524 127.656 167.588 124.856 167.588C122.42 167.588 120.488 166.874 119.06 165.446V175.4H112.088V146H119.06V147.554C120.488 146.126 122.42 145.412 124.856 145.412ZM120.278 159.776C121.09 160.588 122.154 160.994 123.47 160.994C124.786 160.994 125.85 160.588 126.662 159.776C127.474 158.936 127.88 157.844 127.88 156.5C127.88 155.156 127.474 154.078 126.662 153.266C125.85 152.426 124.786 152.006 123.47 152.006C122.154 152.006 121.09 152.426 120.278 153.266C119.466 154.078 119.06 155.156 119.06 156.5C119.06 157.844 119.466 158.936 120.278 159.776ZM149.098 146H156.784L149.938 166.37C147.838 172.698 143.582 175.708 137.17 175.4V168.848C138.626 168.848 139.732 168.68 140.488 168.344C141.244 168.036 141.846 167.462 142.294 166.622L134.188 146H141.916L145.99 158.054L149.098 146ZM171.593 154.988C173.469 156.22 174.407 158.012 174.407 160.364C174.407 162.436 173.637 164.172 172.097 165.572C170.557 166.944 168.331 167.63 165.419 167.63C162.451 167.63 160.197 166.944 158.657 165.572C157.145 164.2 156.389 162.38 156.389 160.112H163.319C163.319 161.232 164.019 161.792 165.419 161.792C166.791 161.792 167.477 161.204 167.477 160.028C167.477 158.964 166.791 158.432 165.419 158.432H162.899V153.56H165.545C166.077 153.252 166.343 152.804 166.343 152.216C166.343 151.404 165.895 150.998 164.999 150.998C164.075 150.998 163.613 151.432 163.613 152.3H156.977C156.977 150.144 157.677 148.464 159.077 147.26C160.505 146.028 162.549 145.412 165.209 145.412C167.589 145.412 169.479 145.972 170.879 147.092C172.279 148.184 172.979 149.626 172.979 151.418C172.979 152.874 172.517 154.064 171.593 154.988ZM197.39 167H189.536L183.824 158.138V167H176.852V146H183.824V154.736L189.116 146H196.97L190.25 156.5L197.39 167ZM206.922 145.412C209.414 145.412 211.528 146.14 213.264 147.596C215 149.024 215.868 151.082 215.868 153.77V167H209.148V165.572C207.86 166.916 206.152 167.588 204.024 167.588C201.98 167.588 200.286 167.028 198.942 165.908C197.626 164.76 196.968 163.136 196.968 161.036C196.968 158.936 197.64 157.326 198.984 156.206C200.328 155.058 202.036 154.484 204.108 154.484C206.124 154.484 207.804 154.96 209.148 155.912V153.98C209.148 152.412 208.406 151.628 206.922 151.628C206.194 151.628 205.634 151.796 205.242 152.132C204.878 152.468 204.696 152.902 204.696 153.434H197.976C197.976 150.914 198.844 148.954 200.58 147.554C202.344 146.126 204.458 145.412 206.922 145.412ZM206.46 162.968C207.272 162.968 207.916 162.786 208.392 162.422C208.896 162.058 209.148 161.596 209.148 161.036C209.148 160.42 208.896 159.944 208.392 159.608C207.916 159.272 207.272 159.104 206.46 159.104C205.676 159.104 205.06 159.286 204.612 159.65C204.192 159.986 203.982 160.448 203.982 161.036C203.982 161.624 204.192 162.1 204.612 162.464C205.06 162.8 205.676 162.968 206.46 162.968ZM219.761 167V159.482H227.279V167H219.761ZM231.902 167V159.482H239.42V167H231.902ZM244.042 167V159.482H251.56V167H244.042Z" fill="#FAE073" fill-opacity="0.6"/>
<defs>
<linearGradient id="paint0_linear_430_16" x1="303" y1="151.5" x2="1.80662e-06" y2="151.5" gradientUnits="userSpaceOnUse">
<stop stop-color="#FAE073"/>
<stop offset="1" stop-color="#FAE073" stop-opacity="0"/>
</linearGradient>
</defs>
</svg>
