<svg width="30" height="28" viewBox="0 0 30 28" fill="none" xmlns="http://www.w3.org/2000/svg">
<g id="Component 1">
<path id="Arrow 2" d="M13 15C13.5523 15 14 14.5523 14 14C14 13.4477 13.5523 13 13 13V15ZM0.292893 13.2929C-0.0976315 13.6834 -0.0976315 14.3166 0.292893 14.7071L6.65685 21.0711C7.04738 21.4616 7.68054 21.4616 8.07107 21.0711C8.46159 20.6805 8.46159 20.0474 8.07107 19.6569L2.41421 14L8.07107 8.34315C8.46159 7.95262 8.46159 7.31946 8.07107 6.92893C7.68054 6.53841 7.04738 6.53841 6.65685 6.92893L0.292893 13.2929ZM13 13L1 13V15L13 15V13Z" fill="#FAE073"/>
<path id="Vector 3" d="M11 7.70968V3C11 1.89543 11.8954 1 13 1H27C28.1046 1 29 1.89543 29 3V25C29 26.1046 28.1046 27 27 27H13C11.8954 27 11 26.1046 11 25V21.129" stroke="#FAE073" stroke-width="2" stroke-linecap="round"/>
</g>
</svg>
