<svg width="48" height="48" viewBox="0 0 48 48" fill="none" xmlns="http://www.w3.org/2000/svg">
<g id="&#209;&#131;&#208;&#178;&#208;&#181;&#208;&#180;&#209;&#139;">
<path id="Vector" d="M38.1077 18.2248C38.1077 31.7355 46 38.1085 46 38.1085H2C2 38.1085 8.29222 33.6899 8.29222 18.2248C8.29222 14.7092 9.88132 11.3375 12.71 8.85158C15.5386 6.36563 19.375 4.96906 23.3753 4.96906C24.2233 4.96906 38.1077 4.89117 38.1077 18.2248Z" fill="#242323" stroke="#FAE073" stroke-width="3" stroke-linecap="round" stroke-linejoin="round"/>
<g id="Vector_2">
<path d="M27.0468 43.0759C26.6403 43.9653 26.057 44.7036 25.3548 45.2165C24.6528 45.7297 23.857 46 23.0468 46C22.2366 46 21.4408 45.7297 20.7388 45.2165C20.0369 44.7036 19.4533 43.9653 19.0468 43.0759" fill="#242323"/>
<path d="M27.0468 43.0759C26.6403 43.9653 26.057 44.7036 25.3548 45.2165C24.6528 45.7297 23.857 46 23.0468 46C22.2366 46 21.4408 45.7297 20.7388 45.2165C20.0369 44.7036 19.4533 43.9653 19.0468 43.0759" stroke="#FAE073" stroke-width="3" stroke-linecap="round" stroke-linejoin="round"/>
</g>
<line id="Line 1" x1="23.1685" y1="3.84814" x2="23.1685" y2="2.00002" stroke="#FAE073" stroke-width="4" stroke-linecap="round"/>
</g>
</svg>
