<svg width="41.000061" height="41.499969" viewBox="0 0 41.0001 41.5" fill="none" xmlns="http://www.w3.org/2000/svg" xmlns:xlink="http://www.w3.org/1999/xlink">
	<desc>
			Created with Pixso.
	</desc>
	<defs/>
	<path id="Vector" d="" fill="#242323" fill-opacity="0" fill-rule="nonzero"/>
	<path id="Vector" d="M39.5 33.4809L1.5 33.4809C1.5 33.4809 6.9342 29.8308 6.9342 17.0553C6.9342 14.151 8.30658 11.3658 10.7495 9.31216C13.1924 7.25854 16.5057 6.10486 19.9605 6.10486C20.6928 6.10486 32.6839 6.04053 32.6839 17.0553C32.6839 28.2162 39.5 33.4809 39.5 33.4809Z" stroke="#FAE073" stroke-opacity="1.000000" stroke-width="3.000000" stroke-linejoin="round"/>
	<path id="Vector" d="M23.1314 37.5844C22.7803 38.3192 22.2766 38.929 21.6701 39.3528C21.0638 39.7767 20.3765 40 19.6768 40C18.9771 40 18.2898 39.7767 17.6836 39.3528C17.0773 38.929 16.5734 38.3192 16.2223 37.5844" stroke="#FAE073" stroke-opacity="1.000000" stroke-width="3.000000" stroke-linejoin="round" stroke-linecap="round"/>
	<path id="Line 1" d="M19.5092 6.83105L19.5092 2" stroke="#FAE073" stroke-opacity="1.000000" stroke-width="4.000000" stroke-linecap="round"/>
</svg>
