<svg width="42" height="40" viewBox="0 0 42 40" fill="none" xmlns="http://www.w3.org/2000/svg">
<g id="&#209;&#131;&#208;&#178;&#208;&#181;&#208;&#180;&#209;&#139;">
<path id="Vector" d="M33.1839 15.0553C33.1839 26.2163 40 31.4809 40 31.4809H2C2 31.4809 7.43419 27.8308 7.43419 15.0553C7.43419 12.151 8.8066 9.36576 11.2495 7.31216C13.6924 5.25855 17.0057 4.10486 20.4605 4.10486C21.1928 4.10486 33.1839 4.04052 33.1839 15.0553Z" fill="#242323" stroke="#FAE073" stroke-width="3" stroke-linecap="round" stroke-linejoin="round"/>
<path id="Vector_2" d="M23.6313 35.5845C23.2802 36.3192 22.7764 36.9291 22.17 37.3528C21.5637 37.7768 20.8764 38 20.1767 38C19.477 38 18.7897 37.7768 18.1835 37.3528C17.5772 36.9291 17.0732 36.3192 16.7222 35.5845" stroke="#FAE073" stroke-width="3" stroke-linecap="round" stroke-linejoin="round"/>
<line id="Line 1" x1="20.009" y1="2.83105" x2="20.009" y2="1.99999" stroke="#FAE073" stroke-width="4" stroke-linecap="round"/>
</g>
</svg>
