<svg width="50" height="50" viewBox="0 0 50 50" fill="none" xmlns="http://www.w3.org/2000/svg">
<g id="&#208;&#191;&#209;&#128;&#208;&#190;&#209;&#132;&#208;&#184;&#208;&#187;&#209;&#140;">
<ellipse id="Ellipse 7" cx="25" cy="25.3916" rx="23" ry="22.6084" fill="#242323"/>
<path id="Vector" d="M13.6949 38.0806V35.7869C13.6949 29.4534 18.8436 24.3189 25.1949 24.3189C31.5461 24.3189 36.6949 29.4534 36.6949 35.7869V38.0806" stroke="#FAE073" stroke-width="3" stroke-linecap="round"/>
<path id="Vector_2" d="M25.3729 23.7062C29.239 23.7062 32.3729 20.6256 32.3729 16.8253C32.3729 13.0252 29.239 9.94452 25.3729 9.94452C21.5068 9.94452 18.3729 13.0252 18.3729 16.8253C18.3729 20.6256 21.5068 23.7062 25.3729 23.7062Z" stroke="#FAE073" stroke-width="3" stroke-linecap="round" stroke-linejoin="round"/>
<path id="Vector_3" d="M25 48C37.7025 48 48 37.7025 48 25C48 12.2975 37.7025 2 25 2C12.2975 2 2 12.2975 2 25C2 37.7025 12.2975 48 25 48Z" stroke="#FAE073" stroke-width="3"/>
</g>
</svg>
