<svg width="41.000000" height="41.000000" viewBox="0 0 41 41" fill="none" xmlns="http://www.w3.org/2000/svg" xmlns:xlink="http://www.w3.org/1999/xlink">
	<desc>
			Created with Pixso.
	</desc>
	<defs/>
	<ellipse id="Ellipse 7" cx="20.500000" cy="20.823517" rx="19.000000" ry="18.676517" fill="#242323" fill-opacity="0"/>
	<path id="Vector" d="M11.161 31.3057L11.161 29.411C11.161 24.1789 15.4143 19.9374 20.661 19.9374C25.9077 19.9374 30.161 24.1789 30.161 29.411L30.161 31.3057" stroke="#FAE073" stroke-opacity="1.000000" stroke-width="3.000000" stroke-linecap="round"/>
	<path id="Vector" d="M26.5906 13.747C26.5906 10.6077 24.0017 8.06284 20.808 8.06284C17.6143 8.06284 15.0254 10.6077 15.0254 13.747C15.0254 16.8864 17.6143 19.4312 20.808 19.4312C24.0017 19.4312 26.5906 16.8864 26.5906 13.747Z" stroke="#FAE073" stroke-opacity="1.000000" stroke-width="3.000000" stroke-linejoin="round"/>
	<path id="Vector" d="M20.5 39.5C10.0066 39.5 1.5 30.9934 1.5 20.5C1.5 10.0066 10.0066 1.5 20.5 1.5C30.9934 1.5 39.5 10.0066 39.5 20.5C39.5 30.9934 30.9934 39.5 20.5 39.5Z" stroke="#FAE073" stroke-opacity="1.000000" stroke-width="3.000000"/>
</svg>
