<svg width="50" height="50" viewBox="0 0 50 50" fill="none" xmlns="http://www.w3.org/2000/svg">
<g id="&#208;&#191;&#209;&#128;&#208;&#190;&#209;&#132;&#208;&#184;&#208;&#187;&#209;&#140;" filter="url(#filter0_d_470_73)">
<ellipse id="Ellipse 7" cx="21" cy="21.3235" rx="19" ry="18.6765" fill="#242323"/>
<path id="Vector" d="M11.661 31.8057V29.911C11.661 24.6789 15.9143 20.4374 21.161 20.4374C26.4077 20.4374 30.661 24.6789 30.661 29.911V31.8057" stroke="#FAE073" stroke-width="3" stroke-linecap="round"/>
<path id="Vector_2" d="M21.308 19.9312C24.5017 19.9312 27.0906 17.3864 27.0906 14.247C27.0906 11.1078 24.5017 8.56287 21.308 8.56287C18.1143 8.56287 15.5254 11.1078 15.5254 14.247C15.5254 17.3864 18.1143 19.9312 21.308 19.9312Z" stroke="#FAE073" stroke-width="3" stroke-linecap="round" stroke-linejoin="round"/>
<path id="Vector_3" d="M21 40C31.4934 40 40 31.4934 40 21C40 10.5066 31.4934 2 21 2C10.5066 2 2 10.5066 2 21C2 31.4934 10.5066 40 21 40Z" stroke="#FAE073" stroke-width="3"/>
</g>
<defs>
<filter id="filter0_d_470_73" x="0.5" y="0.5" width="49" height="49" filterUnits="userSpaceOnUse" color-interpolation-filters="sRGB">
<feFlood flood-opacity="0" result="BackgroundImageFix"/>
<feColorMatrix in="SourceAlpha" type="matrix" values="0 0 0 0 0 0 0 0 0 0 0 0 0 0 0 0 0 0 127 0" result="hardAlpha"/>
<feOffset dx="4" dy="4"/>
<feGaussianBlur stdDeviation="2"/>
<feComposite in2="hardAlpha" operator="out"/>
<feColorMatrix type="matrix" values="0 0 0 0 0 0 0 0 0 0 0 0 0 0 0 0 0 0 0.35 0"/>
<feBlend mode="normal" in2="BackgroundImageFix" result="effect1_dropShadow_470_73"/>
<feBlend mode="normal" in="SourceGraphic" in2="effect1_dropShadow_470_73" result="shape"/>
</filter>
</defs>
</svg>
