<svg width="41.000000" height="39.939423" viewBox="0 0 41 39.9394" fill="none" xmlns="http://www.w3.org/2000/svg" xmlns:xlink="http://www.w3.org/1999/xlink">
	<desc>
			Created with Pixso.
	</desc>
	<defs/>
	<path id="Vector 1" d="" fill="#242323" fill-opacity="0" fill-rule="nonzero"/>
	<path id="Vector 1" d="M13.9155 1.90237C14.8177 1.38681 15.9645 1.64813 16.5543 2.50366L18.0993 4.7446C18.4726 5.28607 19.0883 5.60938 19.7459 5.60938L21.1697 5.60938C21.8735 5.60938 22.5255 5.23944 22.8865 4.63522L24.0853 2.62894C24.6332 1.71198 25.805 1.38739 26.7466 1.89178L33.4067 5.4595C34.4128 5.99841 34.7646 7.26859 34.1792 8.24832L33.0593 10.1226C32.7076 10.7112 32.6819 11.4389 32.9913 12.0508L33.4255 12.9096C33.7659 13.5828 34.456 14.0072 35.2104 14.0072L37.5 14.0072C38.6046 14.0072 39.5 14.9026 39.5 16.0072L39.5 23.7641C39.5 24.8687 38.6046 25.7641 37.5 25.7641L35.1687 25.7641C34.4363 25.7641 33.7625 26.1644 33.4122 26.8077L33.0402 27.4909C32.702 28.1122 32.717 28.8659 33.0799 29.4732L34.2125 31.3687C34.7852 32.3272 34.4622 33.569 33.495 34.127L26.7703 38.0064C25.8239 38.5524 24.6144 38.2378 24.054 37.2999L22.8865 35.346C22.5255 34.7418 21.8735 34.3718 21.1697 34.3718L19.9254 34.3718C19.1711 34.3718 18.481 34.7962 18.1406 35.4694L17.3055 37.1212C16.7907 38.1393 15.5299 38.5213 14.5367 37.96L7.80225 34.1543C6.80133 33.5887 6.48221 32.2976 7.10431 31.3308L8.20355 29.6226C8.64304 28.9396 8.62585 28.0587 8.1601 27.3933L7.6167 26.6171C7.24246 26.0825 6.63089 25.7641 5.97827 25.7641L3.5 25.7641C2.39542 25.7641 1.5 24.8687 1.5 23.7641L1.5 16.0072C1.5 14.9026 2.39542 14.0072 3.5 14.0072L5.78964 14.0072C6.54398 14.0072 7.23413 13.5828 7.57449 12.9096L8.02881 12.011C8.32712 11.4209 8.31454 10.7216 7.99524 10.1427L6.90955 8.17422C6.38177 7.21732 6.71979 6.01395 7.66861 5.4718L13.9155 1.90237Z" stroke="#FAE073" stroke-opacity="1.000000" stroke-width="3.000000"/>
	<path id="Vector" d="" fill="#242323" fill-opacity="0" fill-rule="nonzero"/>
	<path id="Vector" d="M27.6535 20.266C27.6535 16.616 24.6948 13.6573 21.0449 13.6573C17.3949 13.6573 14.4362 16.616 14.4362 20.266C14.4362 23.916 17.3949 26.8747 21.0449 26.8747C24.6948 26.8747 27.6535 23.916 27.6535 20.266Z" stroke="#FAE073" stroke-opacity="1.000000" stroke-width="3.000000" stroke-linejoin="round"/>
</svg>
