<svg width="50" height="48" viewBox="0 0 50 48" fill="none" xmlns="http://www.w3.org/2000/svg">
<g id="&#208;&#189;&#208;&#176;&#209;&#129;&#209;&#130;&#209;&#128;&#208;&#190;&#208;&#185;&#208;&#186;&#208;&#184;">
<path id="Vector 1" d="M17.3652 1.91176L9.10716 6.63036C8.15832 7.17252 7.82032 8.37589 8.3481 9.33279L9.9701 12.2736C10.2894 12.8525 10.302 13.5519 10.0037 14.1419L9.2365 15.6593C8.89615 16.3325 8.20598 16.7569 7.45165 16.7569H4C2.89543 16.7569 2 17.6523 2 18.7569V28.989C2 30.0935 2.89543 30.989 4 30.989H7.64029C8.2929 30.989 8.90446 31.3074 9.27872 31.842L10.2243 33.1928C10.6901 33.8581 10.7073 34.739 10.2678 35.422L8.54287 38.1027C7.92076 39.0695 8.23987 40.3605 9.24078 40.9261L18.1651 45.9694C19.1584 46.5307 20.4192 46.1488 20.934 45.1306L22.2607 42.5064C22.6011 41.8333 23.2912 41.4088 24.0456 41.4088H26.0496C26.7534 41.4088 27.4054 41.7788 27.7664 42.383L29.5149 45.3093C30.0753 46.2472 31.2848 46.5618 32.2312 46.0158L41.1012 40.8988C42.0683 40.3409 42.3913 39.0991 41.8186 38.1406L40.105 35.2726C39.7422 34.6654 39.7271 33.9117 40.0654 33.2904L40.7502 32.0326C41.1005 31.3893 41.7743 30.989 42.5067 30.989H46C47.1046 30.989 48 30.0935 48 28.989V18.7569C48 17.6523 47.1046 16.7569 46 16.7569H42.5484C41.794 16.7569 41.1039 16.3325 40.7635 15.6593L40.0165 14.1817C39.7071 13.5698 39.7327 12.8421 40.0844 12.2535L41.7853 9.4069C42.3707 8.42717 42.0189 7.15699 41.0128 6.61807L32.2075 1.9012C31.2659 1.3968 30.0941 1.72137 29.5462 2.63833L27.7664 5.61701C27.4054 6.2212 26.7534 6.59116 26.0496 6.59116H23.866C23.2084 6.59116 22.5927 6.26784 22.2194 5.72638L20.004 2.51305C19.4142 1.65752 18.2675 1.39622 17.3652 1.91176Z" fill="#1E1E1E" stroke="#FAE073" stroke-width="3"/>
<path id="Vector" d="M25.6595 32.3333C30.0779 32.3333 33.6595 28.7517 33.6595 24.3333C33.6595 19.9149 30.0779 16.3333 25.6595 16.3333C21.2411 16.3333 17.6595 19.9149 17.6595 24.3333C17.6595 28.7517 21.2411 32.3333 25.6595 32.3333Z" fill="#242323" stroke="#FAE073" stroke-width="3" stroke-linecap="round" stroke-linejoin="round"/>
</g>
</svg>
