<svg width="42" height="40" viewBox="0 0 42 40" fill="none" xmlns="http://www.w3.org/2000/svg">
<g id="&#208;&#189;&#208;&#176;&#209;&#129;&#209;&#130;&#209;&#128;&#208;&#190;&#208;&#185;&#208;&#186;&#208;&#184;">
<path id="Vector 1" d="M14.4155 1.91176L8.16861 5.48119C7.21977 6.02335 6.88178 7.22672 7.40956 8.18362L8.49524 10.1521C8.81456 10.731 8.82712 11.4303 8.52881 12.0204L8.07449 12.919C7.73413 13.5922 7.04397 14.0166 6.28964 14.0166H4C2.89543 14.0166 2 14.912 2 16.0166V23.7735C2 24.878 2.89543 25.7735 4 25.7735H6.47828C7.13089 25.7735 7.74245 26.0919 8.11671 26.6265L8.6601 27.4027C9.12586 28.0681 9.14303 28.949 8.70356 29.632L7.60432 31.3402C6.98221 32.3071 7.30132 33.5981 8.30223 34.1637L15.0367 37.9694C16.0299 38.5307 17.2907 38.1488 17.8055 37.1306L18.6406 35.4788C18.9809 34.8056 19.6711 34.3812 20.4254 34.3812H21.6697C22.3735 34.3812 23.0255 34.7512 23.3865 35.3554L24.554 37.3093C25.1144 38.2472 26.3239 38.5618 27.2703 38.0158L33.995 34.1364C34.9622 33.5784 35.2852 32.3366 34.7125 31.3781L33.5799 29.4826C33.217 28.8753 33.202 28.1216 33.5402 27.5003L33.9122 26.8171C34.2625 26.1738 34.9363 25.7735 35.6687 25.7735H38C39.1046 25.7735 40 24.878 40 23.7735V16.0166C40 14.912 39.1046 14.0166 38 14.0166H35.7104C34.956 14.0166 34.2659 13.5922 33.9255 12.919L33.4913 12.0602C33.182 11.4483 33.2076 10.7205 33.5593 10.1319L34.6792 8.25773C35.2646 7.27799 34.9127 6.00782 33.9067 5.4689L27.2466 1.9012C26.305 1.3968 25.1332 1.72137 24.5853 2.63834L23.3865 4.64463C23.0255 5.24883 22.3735 5.61878 21.6697 5.61878H20.2459C19.5883 5.61878 18.9726 5.29546 18.5993 4.75401L17.0543 2.51305C16.4645 1.65752 15.3177 1.39622 14.4155 1.91176Z" fill="#242323" stroke="#FAE073" stroke-width="3"/>
<path id="Vector" d="M21.5449 26.8841C25.1948 26.8841 28.1535 23.9254 28.1535 20.2754C28.1535 16.6254 25.1948 13.6667 21.5449 13.6667C17.8949 13.6667 14.9362 16.6254 14.9362 20.2754C14.9362 23.9254 17.8949 26.8841 21.5449 26.8841Z" fill="#242323" stroke="#FAE073" stroke-width="3" stroke-linecap="round" stroke-linejoin="round"/>
</g>
</svg>
