<svg width="49.000000" height="47.939392" viewBox="0 0 49 47.9394" fill="none" xmlns="http://www.w3.org/2000/svg" xmlns:xlink="http://www.w3.org/1999/xlink">
	<desc>
			Created with Pixso.
	</desc>
	<defs>
		<filter id="filter_71_367_dd" x="0.000000" y="0.000000" width="49.000000" height="47.939392" filterUnits="userSpaceOnUse" color-interpolation-filters="sRGB">
			<feFlood flood-opacity="0" result="BackgroundImageFix"/>
			<feColorMatrix in="SourceAlpha" type="matrix" values="0 0 0 0 0 0 0 0 0 0 0 0 0 0 0 0 0 0 127 0" result="hardAlpha"/>
			<feOffset dx="4" dy="4"/>
			<feGaussianBlur stdDeviation="1.33333"/>
			<feComposite in2="hardAlpha" operator="out" k2="-1" k3="1"/>
			<feColorMatrix type="matrix" values="0 0 0 0 0 0 0 0 0 0 0 0 0 0 0 0 0 0 0.25 0"/>
			<feBlend mode="normal" in2="BackgroundImageFix" result="effect_dropShadow_1"/>
			<feBlend mode="normal" in="SourceGraphic" in2="effect_dropShadow_1" result="shape"/>
		</filter>
	</defs>
	<g filter="url(#filter_71_367_dd)">
		<path id="Vector 1" d="M7.66858 5.4718L13.9155 1.90234C14.8177 1.38684 15.9645 1.64813 16.5543 2.50366L18.0994 4.74463C18.4727 5.28607 19.0883 5.60938 19.746 5.60938L21.1697 5.60938C21.8735 5.60938 22.5255 5.23944 22.8865 4.63525L24.0853 2.62891C24.6332 1.71198 25.8049 1.38739 26.7466 1.89178L33.4067 5.45947C34.4127 5.99841 34.7645 7.26862 34.1792 8.24835L33.0593 10.1226C32.7076 10.7111 32.682 11.4389 32.9913 12.0508L33.4255 12.9095C33.7659 13.5828 34.4561 14.0072 35.2103 14.0072L37.5 14.0072C38.6046 14.0072 39.5 14.9026 39.5 16.0072L39.5 23.7641C39.5 24.8687 38.6046 25.7641 37.5 25.7641L35.1687 25.7641C34.4363 25.7641 33.7625 26.1644 33.4122 26.8077L33.0402 27.4909C32.7019 28.1122 32.717 28.8659 33.0798 29.4731L34.2125 31.3688C34.7852 32.3273 34.4622 33.569 33.495 34.127L26.7703 38.0064C25.8239 38.5524 24.6144 38.2378 24.054 37.2999L22.8865 35.3459C22.5255 34.7418 21.8735 34.3718 21.1697 34.3718L19.9254 34.3718C19.1711 34.3718 18.481 34.7963 18.1406 35.4694L17.3054 37.1212C16.7908 38.1393 15.5299 38.5213 14.5366 37.96L7.80225 34.1543C6.80127 33.5887 6.48218 32.2977 7.10437 31.3308L8.20361 29.6226C8.64307 28.9396 8.62585 28.0587 8.16016 27.3933L7.6167 26.6171C7.24243 26.0825 6.63086 25.7641 5.97827 25.7641L3.5 25.7641C2.39539 25.7641 1.5 24.8687 1.5 23.7641L1.5 16.0072C1.5 14.9026 2.39539 14.0072 3.5 14.0072L5.78967 14.0072C6.54395 14.0072 7.23413 13.5828 7.57446 12.9095L8.02881 12.011C8.32715 11.421 8.31458 10.7216 7.99524 10.1426L6.90955 8.17419C6.38184 7.21735 6.71973 6.01398 7.66858 5.4718Z" fill="#242323" fill-opacity="1.000000" fill-rule="evenodd"/>
		<path id="Vector 1" d="M13.9155 1.90234C14.8177 1.38684 15.9645 1.64813 16.5543 2.50366L18.0994 4.74463C18.4727 5.28607 19.0883 5.60938 19.746 5.60938L21.1697 5.60938C21.8735 5.60938 22.5255 5.23944 22.8865 4.63525L24.0853 2.62891C24.6332 1.71198 25.8049 1.38739 26.7466 1.89178L33.4067 5.45947C34.4127 5.99841 34.7645 7.26862 34.1792 8.24835L33.0593 10.1226C32.7076 10.7111 32.682 11.4389 32.9913 12.0508L33.4255 12.9095C33.7659 13.5828 34.4561 14.0072 35.2103 14.0072L37.5 14.0072C38.6046 14.0072 39.5 14.9026 39.5 16.0072L39.5 23.7641C39.5 24.8687 38.6046 25.7641 37.5 25.7641L35.1687 25.7641C34.4363 25.7641 33.7625 26.1644 33.4122 26.8077L33.0402 27.4909C32.7019 28.1122 32.717 28.8659 33.0798 29.4731L34.2125 31.3688C34.7852 32.3273 34.4622 33.569 33.495 34.127L26.7703 38.0064C25.8239 38.5524 24.6144 38.2378 24.054 37.2999L22.8865 35.3459C22.5255 34.7418 21.8735 34.3718 21.1697 34.3718L19.9254 34.3718C19.1711 34.3718 18.481 34.7963 18.1406 35.4694L17.3054 37.1212C16.7908 38.1393 15.5299 38.5213 14.5366 37.96L7.80225 34.1543C6.80127 33.5887 6.48218 32.2977 7.10437 31.3308L8.20361 29.6226C8.64307 28.9396 8.62585 28.0587 8.16016 27.3933L7.6167 26.6171C7.24243 26.0825 6.63086 25.7641 5.97827 25.7641L3.5 25.7641C2.39539 25.7641 1.5 24.8687 1.5 23.7641L1.5 16.0072C1.5 14.9026 2.39539 14.0072 3.5 14.0072L5.78967 14.0072C6.54395 14.0072 7.23413 13.5828 7.57446 12.9095L8.02881 12.011C8.32715 11.421 8.31458 10.7216 7.99524 10.1426L6.90955 8.17419C6.38184 7.21735 6.71973 6.01398 7.66858 5.4718L13.9155 1.90234Z" stroke="#FAE073" stroke-opacity="1.000000" stroke-width="3.000000"/>
		<path id="Vector" d="M21.0448 26.8747C24.6948 26.8747 27.6536 23.916 27.6536 20.266C27.6536 16.616 24.6948 13.6573 21.0448 13.6573C17.3949 13.6573 14.4362 16.616 14.4362 20.266C14.4362 23.916 17.3949 26.8747 21.0448 26.8747Z" fill="#242323" fill-opacity="1.000000" fill-rule="nonzero"/>
		<path id="Vector" d="M27.6536 20.266C27.6536 16.616 24.6948 13.6573 21.0448 13.6573C17.3949 13.6573 14.4362 16.616 14.4362 20.266C14.4362 23.916 17.3949 26.8747 21.0448 26.8747C24.6948 26.8747 27.6536 23.916 27.6536 20.266Z" stroke="#FAE073" stroke-opacity="1.000000" stroke-width="3.000000" stroke-linejoin="round"/>
	</g>
</svg>
